<svg width="327" height="176" viewBox="0 0 327 176" fill="none" xmlns="http://www.w3.org/2000/svg">
<path d="M90.0477 64.6856H96.7291V75.3152H90.3514C86.0995 75.3152 83.3662 76.2263 80.481 78.3522C83.6699 82.3004 85.644 87.767 85.644 94.2966C85.644 110.545 72.8885 120.719 50.1108 129.07C67.7256 126.185 84.7329 128.615 84.7329 145.319C84.7329 165.363 64.0811 167.944 13.5147 167.944V157.315C56.7923 157.315 72.2811 156.252 72.2811 144.407C72.2811 127.704 39.0257 135.752 20.348 141.37L17.7666 132.715C29.9147 129.374 41.9109 125.882 53.6034 122.237V118.745C29.3072 124.971 8.0481 117.074 8.0481 93.6892C8.0481 72.8856 25.0554 63.1671 46.7701 63.1671C55.8812 63.1671 65.2959 65.4449 72.4329 70.456C80.3292 65.4449 83.2144 64.6856 90.0477 64.6856ZM46.922 114.341C62.8663 114.341 73.1922 108.722 73.1922 93.9929C73.1922 79.4152 62.8663 73.7967 46.922 73.7967C31.1295 73.7967 20.4999 79.4152 20.4999 93.9929C20.4999 108.722 31.1295 114.341 46.922 114.341ZM105.328 101.434C105.328 77.1374 120.513 63.1671 141.924 63.1671C163.183 63.1671 177.153 76.6819 177.153 99.9151V104.774H117.476C118.235 119.048 125.068 131.348 143.746 131.348C156.198 131.348 164.55 125.274 167.283 113.734H179.735C176.85 125.426 167.738 141.674 143.746 141.674C116.716 141.674 105.328 123.148 105.328 101.434ZM117.476 95.3596H165.005C165.005 83.2115 156.957 73.6449 141.924 73.6449C127.042 73.6449 117.476 83.2115 117.476 95.3596ZM256.572 120.567C256.572 131.956 249.435 141.674 226.81 141.674C202.362 141.674 192.34 130.285 192.34 112.367H204.791C204.791 125.426 212.384 131.5 226.962 131.5C238.654 131.5 244.121 128.767 244.121 121.022C244.121 111.152 233.947 109.482 221.647 105.685C207.373 101.13 195.832 96.7262 195.832 83.0596C195.832 71.0634 206.006 63.1671 223.317 63.1671C246.854 63.1671 253.991 76.0745 253.991 88.5263H241.539C241.539 78.3522 235.313 73.3412 223.317 73.3412C214.965 73.3412 208.284 75.7708 208.284 82.6041C208.284 89.8929 213.447 92.1707 225.595 96.1188C240.476 100.978 256.572 104.319 256.572 120.567ZM293.787 131.196L320.361 129.526V140.156L291.813 141.674C284.676 142.13 281.487 138.333 281.487 131.348V75.3152H264.783V64.6856H281.487V45.2487L293.787 41.4524V64.6856H317.324V75.3152H293.787V131.196Z" fill="white"/>
<path d="M134.792 27.5199C135.744 27.6701 136.607 28.0581 137.383 28.6839C138.184 29.3097 138.81 30.0858 139.261 31.012C139.736 31.9382 139.974 32.927 139.974 33.9783C139.974 35.3051 139.636 36.5066 138.96 37.583C138.284 38.6344 137.296 39.473 135.994 40.0988C134.717 40.6996 133.203 41 131.45 41H121.688V14.8283H131.075C132.852 14.8283 134.367 15.1287 135.618 15.7295C136.87 16.3053 137.809 17.0938 138.435 18.0951C139.06 19.0964 139.373 20.2229 139.373 21.4745C139.373 23.0265 138.948 24.3157 138.097 25.3421C137.27 26.3434 136.169 27.0693 134.792 27.5199ZM125.105 26.1306H130.85C132.452 26.1306 133.691 25.7551 134.567 25.0041C135.443 24.2531 135.881 23.2143 135.881 21.8876C135.881 20.5608 135.443 19.522 134.567 18.771C133.691 18.02 132.427 17.6445 130.775 17.6445H125.105V26.1306ZM131.15 38.1838C132.852 38.1838 134.179 37.7833 135.13 36.9823C136.081 36.1812 136.557 35.0673 136.557 33.6404C136.557 32.1885 136.056 31.0495 135.055 30.2234C134.054 29.3723 132.715 28.9468 131.037 28.9468H125.105V38.1838H131.15ZM160.186 35.1799H148.771L146.668 41H143.064L152.526 14.9785H156.469L165.893 41H162.289L160.186 35.1799ZM159.21 32.4013L154.478 19.184L149.747 32.4013H159.21ZM178.316 41.2628C176.588 41.2628 175.036 40.9625 173.66 40.3617C172.308 39.7359 171.244 38.8847 170.468 37.8083C169.692 36.7069 169.291 35.4427 169.266 34.0159H172.909C173.034 35.2425 173.534 36.2813 174.411 37.1325C175.312 37.9585 176.613 38.3716 178.316 38.3716C179.943 38.3716 181.219 37.971 182.146 37.17C183.097 36.3439 183.573 35.2926 183.573 34.0159C183.573 33.0146 183.297 32.201 182.746 31.5752C182.196 30.9494 181.507 30.4738 180.681 30.1483C179.855 29.8229 178.741 29.4725 177.339 29.097C175.612 28.6464 174.223 28.1958 173.171 27.7452C172.145 27.2946 171.256 26.5937 170.505 25.6425C169.78 24.6662 169.417 23.3645 169.417 21.7374C169.417 20.3105 169.78 19.0463 170.505 17.9449C171.231 16.8435 172.245 15.9924 173.547 15.3916C174.874 14.7908 176.388 14.4904 178.09 14.4904C180.544 14.4904 182.546 15.1037 184.098 16.3303C185.675 17.5569 186.564 19.184 186.764 21.2117H183.009C182.884 20.2104 182.358 19.3342 181.432 18.5832C180.506 17.8072 179.279 17.4192 177.752 17.4192C176.326 17.4192 175.162 17.7947 174.26 18.5457C173.359 19.2716 172.909 20.298 172.909 21.6247C172.909 22.576 173.171 23.352 173.697 23.9528C174.248 24.5535 174.911 25.0166 175.687 25.3421C176.488 25.6425 177.602 25.9929 179.029 26.3934C180.756 26.8691 182.146 27.3447 183.197 27.8203C184.248 28.2709 185.15 28.9843 185.901 29.9606C186.652 30.9118 187.027 32.2135 187.027 33.8657C187.027 35.1424 186.689 36.3439 186.013 37.4704C185.337 38.5969 184.336 39.5106 183.009 40.2115C181.683 40.9124 180.118 41.2628 178.316 41.2628ZM195.472 17.607V26.3559H205.01V29.1721H195.472V38.1838H206.136V41H192.055V14.7908H206.136V17.607H195.472Z" fill="white"/>
<path d="M103.237 149.931C114.002 157.662 126.854 161.956 140.105 162.249C153.356 162.542 166.385 158.821 177.482 151.573L172.495 143.938C162.939 150.179 151.718 153.384 140.307 153.132C128.895 152.879 117.827 149.181 108.556 142.524L103.237 149.931Z" fill="#6600E3"/>
</svg>
