<svg width="341" height="154" viewBox="0 0 341 154" fill="none" xmlns="http://www.w3.org/2000/svg">
<path d="M23.936 79.752L45.184 72.968C44.928 72.1147 44.544 71.0907 44.032 69.896C43.6053 68.616 42.88 67.4213 41.856 66.312C40.832 65.2027 39.424 64.3067 37.632 63.624C35.9253 62.856 33.664 62.5147 30.848 62.6C25.1307 62.856 20.608 65.3733 17.28 70.152C14.0373 74.8453 12.5013 80.0507 12.672 85.768C12.7573 91.5707 14.464 96.7333 17.792 101.256C21.12 105.779 25.472 107.955 30.848 107.784C34.176 107.784 37.12 106.675 39.68 104.456C42.3253 102.237 44.2027 100.488 45.312 99.208C46.5067 97.7573 47.744 96.392 49.024 95.112C50.3893 93.7467 52.0107 93.2773 53.888 93.704C55.68 94.216 56.832 95.112 57.344 96.392C57.856 97.672 57.856 99.08 57.344 100.616C55.7227 104.797 52.5653 108.936 47.872 113.032C43.264 117.043 37.632 119.091 30.976 119.176C26.112 119.176 21.76 118.28 17.92 116.488C14.08 114.696 10.8373 112.264 8.192 109.192C5.54667 106.12 3.49867 102.579 2.048 98.568C0.682667 94.5573 0 90.376 0 86.024C0 81.8427 0.597333 77.6613 1.792 73.48C2.98667 69.2133 4.864 65.416 7.424 62.088C9.984 58.76 13.184 56.072 17.024 54.024C20.9493 51.8907 25.6 50.824 30.976 50.824C36.1813 50.9093 40.4907 51.9333 43.904 53.896C47.3173 55.8587 50.048 58.248 52.096 61.064C54.144 63.88 55.552 66.824 56.32 69.896C57.1733 72.8827 57.6853 75.4427 57.856 77.576L57.728 78.472C57.728 80.264 57.0453 81.544 55.68 82.312C54.3147 83.08 52.6933 83.72 50.816 84.232L25.856 92.04C24.576 92.4667 23.168 92.3813 21.632 91.784C20.096 91.1013 19.072 89.6507 18.56 87.432C17.9627 85.2987 18.2613 83.6347 19.456 82.44C20.6507 81.16 22.144 80.264 23.936 79.752ZM93.044 74.376C102.175 74.9733 109.3 77.5333 114.42 82.056C119.625 86.4933 122.228 91.1013 122.228 95.88C122.228 98.6107 121.545 101.384 120.18 104.2C118.815 106.931 116.852 109.448 114.292 111.752C111.817 113.971 108.788 115.763 105.204 117.128C101.62 118.493 97.5667 119.176 93.044 119.176C88.18 119.176 83.9133 118.408 80.244 116.872C76.66 115.251 73.6733 113.288 71.284 110.984C68.98 108.68 67.2733 106.163 66.164 103.432C65.0547 100.701 64.5 98.184 64.5 95.88C64.5853 94.6 64.8413 93.576 65.268 92.808C65.6947 92.04 66.3347 91.3147 67.188 90.632C68.1267 89.9493 69.492 89.608 71.284 89.608C72.6493 89.608 74.0147 90.2053 75.38 91.4C76.8307 92.5947 77.556 93.8747 77.556 95.24C77.556 99.336 79.1773 102.408 82.42 104.456C85.6627 106.419 89.204 107.4 93.044 107.4C96.884 107.4 99.7853 106.888 101.748 105.864C103.796 104.84 105.289 103.688 106.228 102.408C107.167 101.043 107.721 99.72 107.892 98.44C108.063 97.16 108.148 96.3067 108.148 95.88C108.148 91.784 106.143 89.1813 102.132 88.072C98.2067 86.9627 93.8973 85.9387 89.204 85C84.596 84.0613 80.372 82.5253 76.532 80.392C72.692 78.1733 70.9 73.9493 71.156 67.72C71.156 64.392 72.0093 61.6613 73.716 59.528C75.508 57.3093 77.556 55.56 79.86 54.28C82.2493 53 84.6387 52.0613 87.028 51.464C89.5027 50.8667 91.508 50.568 93.044 50.568C98.932 50.568 104.137 52.2747 108.66 55.688C113.268 59.016 115.615 63.0267 115.7 67.72C115.7 69.512 115.017 70.8347 113.652 71.688C112.372 72.456 110.921 72.84 109.3 72.84C107.764 72.84 106.271 72.4133 104.82 71.56C103.455 70.7067 102.644 69.4267 102.388 67.72C102.132 66.0987 101.023 64.7333 99.06 63.624C97.0973 62.4293 95.092 61.832 93.044 61.832C91.508 61.832 89.6733 62.3013 87.54 63.24C85.492 64.1787 84.468 65.672 84.468 67.72C84.468 69.256 84.8947 70.4933 85.748 71.432C86.6013 72.2853 87.54 72.968 88.564 73.48C89.6733 73.9067 91.1667 74.2053 93.044 74.376ZM176.235 99.848C178.112 97.8853 179.862 96.264 181.483 94.984C183.104 93.704 184.854 93.448 186.731 94.216C188.779 95.24 189.76 96.4773 189.675 97.928C189.59 98.8667 189.291 99.9333 188.779 101.128C188.523 101.64 187.84 102.877 186.731 104.84C185.622 106.717 183.958 108.723 181.739 110.856C179.606 112.904 176.832 114.781 173.419 116.488C170.091 118.109 166.08 118.92 161.387 118.92C156.523 118.92 152.043 118.067 147.947 116.36C143.936 114.568 140.48 112.008 137.579 108.68C134.592 105.437 132.374 101.768 130.923 97.672C129.558 93.576 128.875 89.352 128.875 85C128.875 81.5013 129.43 77.7467 130.539 73.736C131.734 69.7253 133.611 66.0133 136.171 62.6C138.731 59.1867 142.102 56.328 146.283 54.024C150.464 51.72 155.499 50.568 161.387 50.568C166.592 50.568 171.158 51.5067 175.083 53.384C179.008 55.176 182.123 57.224 184.427 59.528C186.219 61.32 187.286 62.984 187.627 64.52C188.054 65.9707 187.627 67.336 186.347 68.616C184.982 69.896 183.659 70.6213 182.379 70.792C181.099 70.9627 179.179 70.024 176.619 67.976C174.571 66.44 172.224 65.032 169.579 63.752C167.019 62.472 164.288 61.832 161.387 61.832C158.4 61.832 155.712 62.5573 153.323 64.008C150.934 65.4587 148.886 67.336 147.179 69.64C145.558 71.8587 144.278 74.3333 143.339 77.064C142.486 79.7947 142.059 82.44 142.059 85C142.059 87.7307 142.486 90.4613 143.339 93.192C144.278 95.9227 145.558 98.3547 147.179 100.488C148.886 102.621 150.934 104.371 153.323 105.736C155.712 107.016 158.4 107.656 161.387 107.656C165.483 107.656 168.512 106.803 170.475 105.096C172.523 103.389 174.443 101.64 176.235 99.848ZM229.271 117.256C226.284 117.939 223.426 118.237 220.695 118.152C212.759 118.152 206.7 116.019 202.519 111.752C198.423 107.485 196.375 102.408 196.375 96.52C196.375 89.6933 198.722 84.4453 203.415 80.776C208.108 77.1067 213.314 75.272 219.031 75.272C222.871 75.1867 225.858 75.5707 227.991 76.424C228.759 76.7653 229.74 77.5333 230.935 78.728C232.215 79.8373 232.642 81.416 232.215 83.464C231.703 85.512 230.764 86.792 229.399 87.304C228.119 87.7307 226.967 87.7307 225.943 87.304C221.164 85.512 216.898 85.5973 213.143 87.56C209.474 89.4373 207.639 92.424 207.639 96.52C207.554 100.275 209.431 103.261 213.271 105.48C217.196 107.613 221.591 108.083 226.455 106.888C228.759 106.376 230.935 105.693 232.983 104.84C235.031 103.987 236.695 102.664 237.975 100.872V74.632C237.463 70.8773 235.586 67.848 232.343 65.544C229.186 63.24 225.986 62.344 222.743 62.856C219.415 62.856 216.684 63.5387 214.551 64.904C212.418 66.184 210.839 67.7627 209.815 69.64C207.682 71.7733 205.164 72.3707 202.263 71.432C200.812 70.92 199.959 70.3227 199.703 69.64C199.532 68.872 199.447 68.232 199.447 67.72C199.191 65.928 199.703 64.0507 200.983 62.088C202.348 60.04 204.14 58.1627 206.359 56.456C208.663 54.7493 211.18 53.3413 213.911 52.232C216.727 51.1227 219.458 50.568 222.103 50.568C230.722 50.568 237.762 52.744 243.223 57.096C248.77 61.448 251.543 67.1227 251.543 74.12V110.344C251.543 110.6 251.5 111.155 251.415 112.008C251.415 112.776 251.202 113.629 250.775 114.568C250.434 115.421 249.751 116.189 248.727 116.872C247.788 117.555 246.38 117.896 244.503 117.896C242.37 117.896 240.834 117.384 239.895 116.36C238.956 115.251 238.359 114.525 238.103 114.184C234.434 115.805 231.49 116.829 229.271 117.256ZM258.25 19.336C259.103 16.264 261.279 14.728 264.778 14.728C266.143 14.728 267.594 15.0267 269.13 15.624C270.666 16.2213 271.562 17.2027 271.818 18.568V113.416C270.197 117.171 267.85 119.048 264.778 119.048C261.706 119.048 259.53 117.171 258.25 113.416V19.336ZM311.771 117.256C308.784 117.939 305.926 118.237 303.195 118.152C295.259 118.152 289.2 116.019 285.019 111.752C280.923 107.485 278.875 102.408 278.875 96.52C278.875 89.6933 281.222 84.4453 285.915 80.776C290.608 77.1067 295.814 75.272 301.531 75.272C305.371 75.1867 308.358 75.5707 310.491 76.424C311.259 76.7653 312.24 77.5333 313.435 78.728C314.715 79.8373 315.142 81.416 314.715 83.464C314.203 85.512 313.264 86.792 311.899 87.304C310.619 87.7307 309.467 87.7307 308.443 87.304C303.664 85.512 299.398 85.5973 295.643 87.56C291.974 89.4373 290.139 92.424 290.139 96.52C290.054 100.275 291.931 103.261 295.771 105.48C299.696 107.613 304.091 108.083 308.955 106.888C311.259 106.376 313.435 105.693 315.483 104.84C317.531 103.987 319.195 102.664 320.475 100.872V74.632C319.963 70.8773 318.086 67.848 314.843 65.544C311.686 63.24 308.486 62.344 305.243 62.856C301.915 62.856 299.184 63.5387 297.051 64.904C294.918 66.184 293.339 67.7627 292.315 69.64C290.182 71.7733 287.664 72.3707 284.763 71.432C283.312 70.92 282.459 70.3227 282.203 69.64C282.032 68.872 281.947 68.232 281.947 67.72C281.691 65.928 282.203 64.0507 283.483 62.088C284.848 60.04 286.64 58.1627 288.859 56.456C291.163 54.7493 293.68 53.3413 296.411 52.232C299.227 51.1227 301.958 50.568 304.603 50.568C313.222 50.568 320.262 52.744 325.723 57.096C331.27 61.448 334.043 67.1227 334.043 74.12V110.344C334.043 110.6 334 111.155 333.915 112.008C333.915 112.776 333.702 113.629 333.275 114.568C332.934 115.421 332.251 116.189 331.227 116.872C330.288 117.555 328.88 117.896 327.003 117.896C324.87 117.896 323.334 117.384 322.395 116.36C321.456 115.251 320.859 114.525 320.603 114.184C316.934 115.805 313.99 116.829 311.771 117.256Z" fill="#515151"/>
<g filter="url(#filter0_f_476_9)">
<rect x="146" y="22" width="48.4712" height="17.1075" rx="8.55374" fill="#6039FB"/>
</g>
<rect x="146" y="22" width="48.4712" height="17.1075" rx="8.55374" fill="#6039FB"/>
<path d="M156.761 35.9014V25.6927H157.938V29.4611H158.037C158.124 29.3282 158.243 29.1587 158.396 28.9527C158.552 28.7433 158.775 28.5572 159.064 28.3944C159.357 28.2283 159.752 28.1452 160.25 28.1452C160.895 28.1452 161.463 28.3064 161.955 28.6287C162.447 28.951 162.831 29.408 163.107 29.9995C163.382 30.591 163.52 31.2889 163.52 32.0931C163.52 32.9039 163.382 33.6067 163.107 34.2016C162.831 34.7931 162.449 35.2517 161.96 35.5774C161.472 35.8997 160.908 36.0609 160.27 36.0609C159.779 36.0609 159.385 35.9795 159.089 35.8166C158.793 35.6505 158.566 35.4627 158.406 35.2534C158.247 35.0407 158.124 34.8646 158.037 34.725H157.898V35.9014H156.761ZM157.918 32.0731C157.918 32.6513 158.002 33.1614 158.172 33.6034C158.341 34.0421 158.589 34.386 158.915 34.6353C159.24 34.8812 159.639 35.0041 160.111 35.0041C160.603 35.0041 161.013 34.8745 161.342 34.6153C161.674 34.3528 161.924 34.0005 162.09 33.5586C162.259 33.1133 162.344 32.6181 162.344 32.0731C162.344 31.5348 162.261 31.0496 162.095 30.6176C161.932 30.1823 161.684 29.8383 161.352 29.5858C161.023 29.3299 160.609 29.2019 160.111 29.2019C159.632 29.2019 159.23 29.3232 158.905 29.5658C158.579 29.8051 158.333 30.1407 158.167 30.5727C158.001 31.0014 157.918 31.5015 157.918 32.0731ZM168.53 36.0609C167.792 36.0609 167.156 35.898 166.621 35.5724C166.089 35.2434 165.679 34.7848 165.39 34.1966C165.104 33.6051 164.961 32.9172 164.961 32.1329C164.961 31.3487 165.104 30.6575 165.39 30.0593C165.679 29.4578 166.081 28.9893 166.596 28.6536C167.114 28.3147 167.719 28.1452 168.41 28.1452C168.809 28.1452 169.203 28.2116 169.592 28.3446C169.981 28.4775 170.334 28.6935 170.654 28.9926C170.973 29.2883 171.227 29.6805 171.416 30.169C171.606 30.6575 171.7 31.259 171.7 31.9734V32.4719H165.798V31.455H170.504C170.504 31.023 170.418 30.6375 170.245 30.2986C170.075 29.9596 169.833 29.6921 169.517 29.496C169.205 29.3 168.836 29.2019 168.41 29.2019C167.942 29.2019 167.536 29.3182 167.194 29.5509C166.855 29.7802 166.594 30.0792 166.412 30.4481C166.229 30.817 166.137 31.2124 166.137 31.6345V32.3124C166.137 32.8906 166.237 33.3808 166.436 33.7829C166.639 34.1816 166.92 34.4857 167.279 34.6951C167.638 34.9011 168.055 35.0041 168.53 35.0041C168.839 35.0041 169.118 34.9609 169.367 34.8745C169.62 34.7848 169.838 34.6519 170.02 34.4757C170.203 34.2963 170.344 34.0736 170.444 33.8078L171.581 34.1268C171.461 34.5123 171.26 34.8513 170.978 35.1437C170.695 35.4328 170.346 35.6588 169.931 35.8216C169.515 35.9811 169.048 36.0609 168.53 36.0609ZM176.82 28.2449V29.2418H172.852V28.2449H176.82ZM174.008 26.4105H175.185V33.7081C175.185 34.0404 175.233 34.2896 175.329 34.4558C175.429 34.6186 175.555 34.7283 175.708 34.7848C175.864 34.838 176.029 34.8646 176.201 34.8646C176.331 34.8646 176.437 34.8579 176.52 34.8446C176.604 34.828 176.67 34.8147 176.72 34.8047L176.959 35.8615C176.879 35.8914 176.768 35.9213 176.625 35.9512C176.482 35.9844 176.301 36.0011 176.082 36.0011C175.75 36.0011 175.424 35.9296 175.105 35.7867C174.789 35.6438 174.527 35.4262 174.317 35.1337C174.111 34.8413 174.008 34.4724 174.008 34.0271V26.4105ZM180.842 36.0808C180.357 36.0808 179.917 35.9894 179.521 35.8067C179.126 35.6206 178.812 35.3531 178.579 35.0041C178.347 34.6519 178.23 34.2265 178.23 33.728C178.23 33.2894 178.317 32.9338 178.489 32.6613C178.662 32.3855 178.893 32.1695 179.182 32.0133C179.471 31.8571 179.79 31.7408 180.139 31.6644C180.492 31.5846 180.846 31.5215 181.201 31.475C181.666 31.4151 182.044 31.3703 182.333 31.3404C182.625 31.3071 182.838 31.2523 182.971 31.1759C183.107 31.0994 183.175 30.9665 183.175 30.7771V30.7372C183.175 30.2454 183.04 29.8632 182.771 29.5907C182.505 29.3182 182.102 29.182 181.56 29.182C180.998 29.182 180.558 29.305 180.239 29.5509C179.92 29.7968 179.696 30.0593 179.566 30.3384L178.45 29.9397C178.649 29.4744 178.915 29.1122 179.247 28.853C179.583 28.5905 179.948 28.4077 180.344 28.3047C180.743 28.1983 181.135 28.1452 181.52 28.1452C181.766 28.1452 182.049 28.1751 182.368 28.2349C182.69 28.2914 183.001 28.4094 183.3 28.5888C183.602 28.7683 183.853 29.0391 184.052 29.4013C184.252 29.7635 184.351 30.2487 184.351 30.8569V35.9014H183.175V34.8646H183.115C183.035 35.0307 182.903 35.2085 182.716 35.3979C182.53 35.5873 182.283 35.7485 181.974 35.8814C181.665 36.0144 181.288 36.0808 180.842 36.0808ZM181.022 35.0241C181.487 35.0241 181.879 34.9327 182.198 34.7499C182.52 34.5671 182.763 34.3312 182.926 34.0421C183.092 33.753 183.175 33.4489 183.175 33.1299V32.0532C183.125 32.113 183.016 32.1678 182.846 32.2177C182.68 32.2642 182.487 32.3057 182.268 32.3423C182.052 32.3755 181.841 32.4054 181.635 32.432C181.432 32.4553 181.268 32.4752 181.141 32.4918C180.836 32.5317 180.55 32.5965 180.284 32.6862C180.021 32.7726 179.809 32.9039 179.646 33.08C179.486 33.2528 179.407 33.4888 179.407 33.7879C179.407 34.1966 179.558 34.5057 179.86 34.715C180.166 34.921 180.553 35.0241 181.022 35.0241Z" fill="white"/>
<path d="M10.1129 138.126C10.1129 139.17 9.75287 140.04 9.03287 140.736C8.32487 141.42 7.23887 141.762 5.77487 141.762H3.36287V147H1.72487V134.454H5.77487C7.19087 134.454 8.26487 134.796 8.99687 135.48C9.74087 136.164 10.1129 137.046 10.1129 138.126ZM5.77487 140.412C6.68687 140.412 7.35887 140.214 7.79087 139.818C8.22287 139.422 8.43887 138.858 8.43887 138.126C8.43887 136.578 7.55087 135.804 5.77487 135.804H3.36287V140.412H5.77487ZM13.7867 138.738C14.0747 138.174 14.4827 137.736 15.0107 137.424C15.5507 137.112 16.2047 136.956 16.9727 136.956V138.648H16.5407C14.7047 138.648 13.7867 139.644 13.7867 141.636V147H12.1487V137.136H13.7867V138.738ZM23.1655 147.162C22.2415 147.162 21.4015 146.952 20.6455 146.532C19.9015 146.112 19.3135 145.518 18.8815 144.75C18.4615 143.97 18.2515 143.07 18.2515 142.05C18.2515 141.042 18.4675 140.154 18.8995 139.386C19.3435 138.606 19.9435 138.012 20.6995 137.604C21.4555 137.184 22.3015 136.974 23.2375 136.974C24.1735 136.974 25.0195 137.184 25.7755 137.604C26.5315 138.012 27.1255 138.6 27.5575 139.368C28.0015 140.136 28.2235 141.03 28.2235 142.05C28.2235 143.07 27.9955 143.97 27.5395 144.75C27.0955 145.518 26.4895 146.112 25.7215 146.532C24.9535 146.952 24.1015 147.162 23.1655 147.162ZM23.1655 145.722C23.7535 145.722 24.3055 145.584 24.8215 145.308C25.3375 145.032 25.7515 144.618 26.0635 144.066C26.3875 143.514 26.5495 142.842 26.5495 142.05C26.5495 141.258 26.3935 140.586 26.0815 140.034C25.7695 139.482 25.3615 139.074 24.8575 138.81C24.3535 138.534 23.8075 138.396 23.2195 138.396C22.6195 138.396 22.0675 138.534 21.5635 138.81C21.0715 139.074 20.6755 139.482 20.3755 140.034C20.0755 140.586 19.9255 141.258 19.9255 142.05C19.9255 142.854 20.0695 143.532 20.3575 144.084C20.6575 144.636 21.0535 145.05 21.5455 145.326C22.0375 145.59 22.5775 145.722 23.1655 145.722ZM31.2592 135.534C30.9472 135.534 30.6832 135.426 30.4672 135.21C30.2632 134.994 30.1612 134.73 30.1612 134.418C30.1612 134.106 30.2632 133.842 30.4672 133.626C30.6832 133.41 30.9472 133.302 31.2592 133.302C31.5712 133.302 31.8292 133.41 32.0332 133.626C32.2492 133.842 32.3572 134.106 32.3572 134.418C32.3572 134.73 32.2492 134.994 32.0332 135.21C31.8292 135.426 31.5712 135.534 31.2592 135.534ZM32.0692 149.142C32.0692 150.018 31.8472 150.66 31.4032 151.068C30.9592 151.476 30.3112 151.68 29.4592 151.68H28.5052V150.294H29.1892C29.6452 150.294 29.9632 150.204 30.1432 150.024C30.3352 149.844 30.4312 149.538 30.4312 149.106V137.136H32.0692V149.142ZM43.8421 141.69C43.8421 142.002 43.8241 142.332 43.7881 142.68H35.9041C35.9641 143.652 36.2941 144.414 36.8941 144.966C37.5061 145.506 38.2441 145.776 39.1081 145.776C39.8161 145.776 40.4041 145.614 40.8721 145.29C41.3521 144.954 41.6881 144.51 41.8801 143.958H43.6441C43.3801 144.906 42.8521 145.68 42.0601 146.28C41.2681 146.868 40.2841 147.162 39.1081 147.162C38.1721 147.162 37.3321 146.952 36.5881 146.532C35.8561 146.112 35.2801 145.518 34.8601 144.75C34.4401 143.97 34.2301 143.07 34.2301 142.05C34.2301 141.03 34.4341 140.136 34.8421 139.368C35.2501 138.6 35.8201 138.012 36.5521 137.604C37.2961 137.184 38.1481 136.974 39.1081 136.974C40.0441 136.974 40.8721 137.178 41.5921 137.586C42.3121 137.994 42.8641 138.558 43.2481 139.278C43.6441 139.986 43.8421 140.79 43.8421 141.69ZM42.1501 141.348C42.1501 140.724 42.0121 140.19 41.7361 139.746C41.4601 139.29 41.0821 138.948 40.6021 138.72C40.1341 138.48 39.6121 138.36 39.0361 138.36C38.2081 138.36 37.5001 138.624 36.9121 139.152C36.3361 139.68 36.0061 140.412 35.9221 141.348H42.1501ZM48.0022 138.486V144.3C48.0022 144.78 48.1042 145.122 48.3082 145.326C48.5122 145.518 48.8662 145.614 49.3702 145.614H50.5762V147H49.1002C48.1882 147 47.5042 146.79 47.0482 146.37C46.5922 145.95 46.3642 145.26 46.3642 144.3V138.486H45.0862V137.136H46.3642V134.652H48.0022V137.136H50.5762V138.486H48.0022ZM56.8628 147.162C55.9388 147.162 55.0988 146.952 54.3428 146.532C53.5988 146.112 53.0108 145.518 52.5788 144.75C52.1588 143.97 51.9488 143.07 51.9488 142.05C51.9488 141.042 52.1648 140.154 52.5968 139.386C53.0408 138.606 53.6408 138.012 54.3968 137.604C55.1528 137.184 55.9988 136.974 56.9348 136.974C57.8708 136.974 58.7168 137.184 59.4728 137.604C60.2288 138.012 60.8228 138.6 61.2548 139.368C61.6988 140.136 61.9208 141.03 61.9208 142.05C61.9208 143.07 61.6928 143.97 61.2368 144.75C60.7928 145.518 60.1868 146.112 59.4188 146.532C58.6508 146.952 57.7988 147.162 56.8628 147.162ZM56.8628 145.722C57.4508 145.722 58.0028 145.584 58.5188 145.308C59.0348 145.032 59.4488 144.618 59.7608 144.066C60.0848 143.514 60.2468 142.842 60.2468 142.05C60.2468 141.258 60.0908 140.586 59.7788 140.034C59.4668 139.482 59.0588 139.074 58.5548 138.81C58.0508 138.534 57.5048 138.396 56.9168 138.396C56.3168 138.396 55.7648 138.534 55.2608 138.81C54.7688 139.074 54.3728 139.482 54.0728 140.034C53.7728 140.586 53.6228 141.258 53.6228 142.05C53.6228 142.854 53.7668 143.532 54.0548 144.084C54.3548 144.636 54.7508 145.05 55.2428 145.326C55.7348 145.59 56.2748 145.722 56.8628 145.722ZM70.5113 138.972C70.8473 138.384 71.3393 137.904 71.9873 137.532C72.6353 137.16 73.3733 136.974 74.2013 136.974C75.0893 136.974 75.8873 137.184 76.5953 137.604C77.3033 138.024 77.8613 138.618 78.2693 139.386C78.6773 140.142 78.8813 141.024 78.8813 142.032C78.8813 143.028 78.6773 143.916 78.2693 144.696C77.8613 145.476 77.2973 146.082 76.5773 146.514C75.8693 146.946 75.0773 147.162 74.2013 147.162C73.3493 147.162 72.5993 146.976 71.9513 146.604C71.3153 146.232 70.8353 145.758 70.5113 145.182V147H68.8733V133.68H70.5113V138.972ZM77.2073 142.032C77.2073 141.288 77.0573 140.64 76.7573 140.088C76.4573 139.536 76.0493 139.116 75.5333 138.828C75.0293 138.54 74.4713 138.396 73.8593 138.396C73.2593 138.396 72.7013 138.546 72.1853 138.846C71.6813 139.134 71.2733 139.56 70.9613 140.124C70.6613 140.676 70.5113 141.318 70.5113 142.05C70.5113 142.794 70.6613 143.448 70.9613 144.012C71.2733 144.564 71.6813 144.99 72.1853 145.29C72.7013 145.578 73.2593 145.722 73.8593 145.722C74.4713 145.722 75.0293 145.578 75.5333 145.29C76.0493 144.99 76.4573 144.564 76.7573 144.012C77.0573 143.448 77.2073 142.788 77.2073 142.032ZM89.5334 137.136L83.5934 151.644H81.9014L83.8454 146.892L79.8674 137.136H81.6854L84.7814 145.128L87.8414 137.136H89.5334ZM91.7019 147.108C91.3899 147.108 91.1259 147 90.9099 146.784C90.6939 146.568 90.5859 146.304 90.5859 145.992C90.5859 145.68 90.6939 145.416 90.9099 145.2C91.1259 144.984 91.3899 144.876 91.7019 144.876C92.0019 144.876 92.2539 144.984 92.4579 145.2C92.6739 145.416 92.7819 145.68 92.7819 145.992C92.7819 146.304 92.6739 146.568 92.4579 146.784C92.2539 147 92.0019 147.108 91.7019 147.108ZM91.7019 139.404C91.3899 139.404 91.1259 139.296 90.9099 139.08C90.6939 138.864 90.5859 138.6 90.5859 138.288C90.5859 137.976 90.6939 137.712 90.9099 137.496C91.1259 137.28 91.3899 137.172 91.7019 137.172C92.0019 137.172 92.2539 137.28 92.4579 137.496C92.6739 137.712 92.7819 137.976 92.7819 138.288C92.7819 138.6 92.6739 138.864 92.4579 139.08C92.2539 139.296 92.0019 139.404 91.7019 139.404ZM99.0188 140.664C99.0188 139.416 99.2888 138.306 99.8288 137.334C100.369 136.35 101.119 135.588 102.079 135.048C103.051 134.496 104.149 134.22 105.373 134.22C106.873 134.22 108.157 134.616 109.225 135.408C110.293 136.2 111.007 137.28 111.367 138.648H107.983C107.731 138.12 107.371 137.718 106.903 137.442C106.447 137.166 105.925 137.028 105.337 137.028C104.389 137.028 103.621 137.358 103.033 138.018C102.445 138.678 102.151 139.56 102.151 140.664C102.151 141.768 102.445 142.65 103.033 143.31C103.621 143.97 104.389 144.3 105.337 144.3C105.925 144.3 106.447 144.162 106.903 143.886C107.371 143.61 107.731 143.208 107.983 142.68H111.367C111.007 144.048 110.293 145.128 109.225 145.92C108.157 146.7 106.873 147.09 105.373 147.09C104.149 147.09 103.051 146.82 102.079 146.28C101.119 145.728 100.369 144.966 99.8288 143.994C99.2888 143.022 99.0188 141.912 99.0188 140.664ZM119.696 147L117.068 142.23H116.33V147H113.252V134.364H118.418C119.414 134.364 120.26 134.538 120.956 134.886C121.664 135.234 122.192 135.714 122.54 136.326C122.888 136.926 123.062 137.598 123.062 138.342C123.062 139.182 122.822 139.932 122.342 140.592C121.874 141.252 121.178 141.72 120.254 141.996L123.17 147H119.696ZM116.33 140.052H118.238C118.802 140.052 119.222 139.914 119.498 139.638C119.786 139.362 119.93 138.972 119.93 138.468C119.93 137.988 119.786 137.61 119.498 137.334C119.222 137.058 118.802 136.92 118.238 136.92H116.33V140.052ZM134.084 134.364V136.83H130.736V147H127.658V136.83H124.31V134.364H134.084ZM147.491 134.364L143.009 147H139.157L134.675 134.364H137.951L141.083 143.904L144.233 134.364H147.491Z" fill="#515151"/>
<defs>
<filter id="filter0_f_476_9" x="124.3" y="0.299999" width="91.8712" height="60.5074" filterUnits="userSpaceOnUse" color-interpolation-filters="sRGB">
<feFlood flood-opacity="0" result="BackgroundImageFix"/>
<feBlend mode="normal" in="SourceGraphic" in2="BackgroundImageFix" result="shape"/>
<feGaussianBlur stdDeviation="10.85" result="effect1_foregroundBlur_476_9"/>
</filter>
</defs>
</svg>
