<svg width="967" height="517" viewBox="0 0 967 517" fill="none" xmlns="http://www.w3.org/2000/svg">
<path d="M266.443 190.344H286.164V221.719H267.339C254.789 221.719 246.721 224.408 238.205 230.683C247.618 242.337 253.444 258.472 253.444 277.746C253.444 325.704 215.795 355.735 148.563 380.386C200.555 371.87 250.755 379.042 250.755 428.345C250.755 487.509 189.798 495.129 40.5433 495.129V463.754C168.284 463.754 214.002 460.616 214.002 425.656C214.002 376.352 115.843 400.108 60.7129 416.692L53.0933 391.143C88.9503 381.283 124.359 370.974 158.871 360.217V349.908C87.1574 368.285 24.4076 344.977 24.4076 275.953C24.4076 214.548 74.6075 185.862 138.702 185.862C165.595 185.862 193.384 192.585 214.45 207.376C237.757 192.585 246.273 190.344 266.443 190.344ZM139.15 336.91C186.212 336.91 216.691 320.326 216.691 276.849C216.691 233.821 186.212 217.237 139.15 217.237C92.536 217.237 61.1611 233.821 61.1611 276.849C61.1611 320.326 92.536 336.91 139.15 336.91ZM311.544 298.812C311.544 227.097 356.365 185.862 419.563 185.862C482.313 185.862 523.549 225.753 523.549 294.329V308.672H347.401C349.642 350.804 369.812 387.109 424.942 387.109C461.695 387.109 486.347 369.181 494.415 335.117H531.168C522.652 369.629 495.759 417.588 424.942 417.588C345.16 417.588 311.544 362.906 311.544 298.812ZM347.401 280.883H487.692C487.692 245.026 463.936 216.789 419.563 216.789C375.638 216.789 347.401 245.026 347.401 280.883ZM757.967 355.286C757.967 388.902 736.901 417.588 670.118 417.588C597.955 417.588 568.373 383.972 568.373 331.083H605.127C605.127 369.629 627.538 387.558 670.566 387.558C705.078 387.558 721.214 379.49 721.214 356.631C721.214 327.497 691.184 322.567 654.879 311.362C612.747 297.915 578.682 284.917 578.682 244.578C578.682 209.169 608.713 185.862 659.809 185.862C729.282 185.862 750.348 223.96 750.348 260.713H713.594C713.594 230.683 695.218 215.892 659.809 215.892C635.157 215.892 615.436 223.064 615.436 243.233C615.436 264.747 630.675 271.471 666.532 283.124C710.457 297.467 757.967 307.328 757.967 355.286ZM867.811 386.661L946.248 381.731V413.106L861.984 417.588C840.918 418.933 831.506 407.727 831.506 387.109V221.719H782.202V190.344H831.506V132.973L867.811 121.767V190.344H937.284V221.719H867.811V386.661Z" fill="#202020"/>
<path d="M398.514 82.2113C401.321 82.6547 403.871 83.7999 406.161 85.6471C408.526 87.4943 410.373 89.7848 411.703 92.5187C413.107 95.2526 413.809 98.1711 413.809 101.274C413.809 105.19 412.811 108.737 410.816 111.914C408.821 115.018 405.903 117.493 402.06 119.34C398.292 121.113 393.822 122 388.65 122H359.833V44.7501H387.541C392.787 44.7501 397.258 45.6368 400.952 47.4101C404.646 49.1095 407.417 51.437 409.264 54.3925C411.112 57.348 412.035 60.673 412.035 64.3674C412.035 68.9484 410.779 72.7537 408.267 75.7831C405.829 78.7386 402.578 80.8813 398.514 82.2113ZM369.919 78.1105H386.876C391.605 78.1105 395.263 77.0022 397.849 74.7856C400.435 72.569 401.728 69.5026 401.728 65.5865C401.728 61.6705 400.435 58.6041 397.849 56.3875C395.263 54.1708 391.531 53.0625 386.655 53.0625H369.919V78.1105ZM387.763 113.688C392.787 113.688 396.703 112.505 399.511 110.141C402.319 107.777 403.723 104.489 403.723 100.277C403.723 95.9914 402.245 92.6295 399.29 90.1912C396.334 87.679 392.381 86.4229 387.431 86.4229H369.919V113.688H387.763ZM473.467 104.821H439.774L433.568 122H422.928L450.858 45.1935H462.495L490.314 122H479.674L473.467 104.821ZM470.586 96.6195L456.621 57.6066L442.656 96.6195H470.586ZM526.98 122.776C521.882 122.776 517.301 121.889 513.237 120.116C509.247 118.269 506.107 115.756 503.816 112.579C501.526 109.328 500.343 105.597 500.27 101.385H511.02C511.39 105.006 512.867 108.072 515.454 110.584C518.114 113.023 521.956 114.242 526.98 114.242C531.783 114.242 535.551 113.06 538.285 110.695C541.093 108.257 542.497 105.154 542.497 101.385C542.497 98.4297 541.684 96.0284 540.058 94.1812C538.433 92.334 536.401 90.9301 533.962 89.9696C531.524 89.009 528.236 87.9746 524.098 86.8663C519 85.5363 514.899 84.2063 511.796 82.8763C508.767 81.5463 506.144 79.4775 503.927 76.6697C501.784 73.7881 500.713 69.9459 500.713 65.1432C500.713 60.9316 501.784 57.2003 503.927 53.9492C506.07 50.6981 509.062 48.1859 512.904 46.4126C516.82 44.6393 521.291 43.7526 526.315 43.7526C533.556 43.7526 539.467 45.5629 544.048 49.1834C548.703 52.8039 551.326 57.6066 551.917 63.5916H540.834C540.465 60.636 538.913 58.05 536.179 55.8333C533.445 53.5428 529.825 52.3975 525.318 52.3975C521.106 52.3975 517.67 53.5059 515.01 55.7225C512.35 57.8652 511.02 60.8947 511.02 64.8107C511.02 67.6185 511.796 69.909 513.348 71.6823C514.973 73.4556 516.931 74.8225 519.222 75.7831C521.586 76.6697 524.874 77.7042 529.086 78.8864C534.184 80.2902 538.285 81.6941 541.388 83.098C544.492 84.428 547.151 86.5338 549.368 89.4154C551.585 92.2232 552.693 96.0653 552.693 100.942C552.693 104.71 551.696 108.257 549.701 111.582C547.706 114.907 544.75 117.604 540.834 119.673C536.918 121.741 532.3 122.776 526.98 122.776ZM577.621 52.9517V78.7755H605.772V87.0879H577.621V113.688H609.097V122H567.535V44.6393H609.097V52.9517H577.621Z" fill="#202020"/>
<path d="M305.373 442.545C337.149 465.364 375.084 478.039 414.195 478.904C453.306 479.769 491.765 468.784 524.519 447.392L509.8 424.856C481.593 443.279 448.473 452.739 414.79 451.994C381.108 451.248 348.439 440.333 321.074 420.681L305.373 442.545Z" fill="#6600E3"/>
</svg>
